HIERARCHY
ROOT Hips
{
  OFFSET 55.5834 85.8171 5.98911
  CHANNELS 6 Xposition Yposition Zposition Zrotation Xrotation Yrotation
  JOINT spine
  {
    OFFSET 0 6.3926 0.367606
    CHANNELS 3 Zrotation Xrotation Yrotation
    JOINT spine1
    {
      OFFSET 0 9.17611 0
      CHANNELS 3 Zrotation Xrotation Yrotation
      JOINT spine2
      {
        OFFSET 0 8.79238 0
        CHANNELS 3 Zrotation Xrotation Yrotation
        JOINT Neck
        {
          OFFSET 0 22.5737 1.07624
          CHANNELS 3 Zrotation Xrotation Yrotation
          JOINT Head
          {
            OFFSET 0 6.82011 0
            CHANNELS 3 Zrotation Xrotation Yrotation
            End Site
            {
              OFFSET 0 16.5085 -5.44427
            }
          }
        }
        JOINT RightShoulder
        {
          OFFSET -3.70221 9.49509 -0.515508
          CHANNELS 3 Zrotation Xrotation Yrotation
          JOINT RightArm
          {
            OFFSET 0 12.4537 0
            CHANNELS 3 Zrotation Xrotation Yrotation
            JOINT RightArmRoll
            {
              OFFSET 0 6.28686 0
              CHANNELS 3 Zrotation Xrotation Yrotation
              JOINT RightForeArm
              {
                OFFSET 0 18.3114 0
                CHANNELS 3 Zrotation Xrotation Yrotation
                JOINT RightForeArmRoll
                {
                  OFFSET 0 7.05482 0
                  CHANNELS 3 Zrotation Xrotation Yrotation
                  JOINT RightHand
                  {
                    OFFSET 0 14.1575 0
                    CHANNELS 3 Zrotation Xrotation Yrotation
                    End Site
                    {
                      OFFSET 0 0 0
                    }
                  }
                }
              }
            }
          }
        }
        JOINT LeftShoulder
        {
          OFFSET 3.70221 9.49509 -0.515508
          CHANNELS 3 Zrotation Xrotation Yrotation
          JOINT LeftArm
          {
            OFFSET 0 12.4537 0
            CHANNELS 3 Zrotation Xrotation Yrotation
            JOINT LeftArmRoll
            {
              OFFSET 0 6.28686 0
              CHANNELS 3 Zrotation Xrotation Yrotation
              JOINT LeftForeArm
              {
                OFFSET 0 18.3114 0
                CHANNELS 3 Zrotation Xrotation Yrotation
                JOINT LeftForeArmRoll
                {
                  OFFSET 0 7.05483 0
                  CHANNELS 3 Zrotation Xrotation Yrotation
                  JOINT LeftHand
                  {
                    OFFSET 0 14.1575 0
                    CHANNELS 3 Zrotation Xrotation Yrotation
                    End Site
                    {
                      OFFSET 0 0 0
                    }
                  }
                }
              }
            }
          }
        }
      }
    }
  }
  JOINT RightUpLeg
  {
    OFFSET -5.66616 -1.03903 -0.87161
    CHANNELS 3 Zrotation Xrotation Yrotation
    JOINT RightUpLegRoll
    {
      OFFSET 0 16.6005 0
      CHANNELS 3 Zrotation Xrotation Yrotation
      JOINT RightLeg
      {
        OFFSET 0 -20.5572 0
        CHANNELS 3 Zrotation Xrotation Yrotation
        JOINT RightLegRoll
        {
          OFFSET 0 20.6244 0
          CHANNELS 3 Zrotation Xrotation Yrotation
          JOINT RightFoot
          {
            OFFSET 0 17.1664 0
            CHANNELS 3 Zrotation Xrotation Yrotation
            JOINT RightToeBase
            {
              OFFSET 0 14.3502 0
              CHANNELS 3 Zrotation Xrotation Yrotation
              End Site
              {
                OFFSET 0.00608252 6.9497 -0.801061
              }
            }
          }
        }
      }
    }
  }
  JOINT LeftUpLeg
  {
    OFFSET 5.66616 -1.03903 -0.87161
    CHANNELS 3 Zrotation Xrotation Yrotation
    JOINT LeftUpLegRoll
    {
      OFFSET 0 16.6006 0
      CHANNELS 3 Zrotation Xrotation Yrotation
      JOINT LeftLeg
      {
        OFFSET 0 20.5571 0
        CHANNELS 3 Zrotation Xrotation Yrotation
        JOINT LeftLegRoll
        {
          OFFSET 0 20.8151 0
          CHANNELS 3 Zrotation Xrotation Yrotation
          JOINT LeftFoot
          {
            OFFSET 0 16.9757 0
            CHANNELS 3 Zrotation Xrotation Yrotation
            JOINT LeftToeBase
            {
              OFFSET 0 14.3502 0
              CHANNELS 3 Zrotation Xrotation Yrotation
              End Site
              {
                OFFSET -0.0272592 6.94971 -0.801061
              }
            }
          }
        }
      }
    }
  }
}
MOTION
Frames: 4
Frame Time: 0.00208333
55.5862 85.8254 6.50514 -2.83864 -5.05032 -0.79418 0.0255006 -1.00869 -0.103894 0.0425271 1.98538 -0.209578 0.0450857 3.63045 -0.210439 4.85095 6.40389 -0.910124 -3.13625 4.82186 0.237246 62.4295 -4.77053 -3.17708 108.98 18.0629 4.56418 5.04413e-007 1.06294e-007 -4.97288e-006 13.0754 4.04812 -0.921022 7.61644e-007 8.30136e-006 -3 8.02887 -4.95145 0.697702 -52.5549 -1.03887 -0.115847 -114.016 15.0168 0.213102 1.5918e-006 2.45892e-006 4.98386e-006 -9.79468 3.80177 0.883244 5.40276e-006 -6.45906e-006 3 -8.02898 -4.95146 -0.697696 177.324 -3.11489 -0.335333 180 7.01521e-015 178.815 177.969 5.36044 179.689 2.55378e-006 -1.84189e-007 0.0494074 -18.6052 67.7249 19.3102 8.13649 25.2326 -3.48773 -171.66 -3.53498 -1.92871 4.54188e-006 -4.6773e-006 -1.12374 -1.40242 -8.15123 0.473241 1.26356e-006 7.58204e-007 -0.0854884 18.914 69.6717 -20.9678 -8.13656 25.2336 3.48643 
55.5706 85.8146 6.50111 -2.84037 -5.04707 -0.796174 0.0256037 -1.00958 -0.104495 0.0432188 1.98362 -0.210026 0.0457886 3.62869 -0.210902 4.85682 6.40633 -0.911413 -3.14107 4.81861 0.237304 62.438 -4.77061 -3.17769 108.949 18.0613 4.60661 5.04413e-007 1.06294e-007 -4.97288e-006 13.0487 4.08761 -0.927712 7.61644e-007 8.30136e-006 -3 8.02887 -4.95145 0.697702 -52.5767 -1.04415 -0.109525 -113.985 15.0235 0.144291 1.5918e-006 2.45892e-006 4.98386e-006 -9.74412 3.79439 0.882754 5.40276e-006 -6.45906e-006 3 -8.02898 -4.95146 -0.697696 177.327 -3.1105 -0.33882 180 7.01521e-015 178.815 177.972 5.3616 179.689 2.55378e-006 -1.84189e-007 0.0494074 -18.6047 67.7243 19.3097 8.13649 25.2326 -3.48773 -171.658 -3.52784 -1.93002 4.54188e-006 -4.6773e-006 -1.12368 -1.40324 -8.15889 0.472983 1.26356e-006 7.58204e-007 -0.0854884 18.914 69.675 -20.9713 -8.13656 25.2336 3.48643 
55.5944 85.8143 6.50255 -2.84209 -5.04378 -0.798021 0.0257112 -1.01047 -0.105114 0.0438994 1.98183 -0.210468 0.0464808 3.6269 -0.211359 4.86321 6.40891 -0.91292 -3.14638 4.81511 0.237258 62.4471 -4.77048 -3.17823 108.918 18.0606 4.64959 5.04413e-007 1.06294e-007 -4.97288e-006 13.022 4.12259 -0.93385 7.61644e-007 8.30136e-006 -3 8.02887 -4.95145 0.697702 -52.5989 -1.04903 -0.103423 -113.953 15.0308 0.0756737 1.5918e-006 2.45892e-006 4.98386e-006 -9.69353 3.78451 0.882067 5.40276e-006 -6.45906e-006 3 -8.02898 -4.95146 -0.697696 177.33 -3.10591 -0.34217 180 7.01521e-015 178.815 177.976 5.36317 179.689 2.55378e-006 -1.84189e-007 0.0494074 -18.6041 67.7235 19.309 8.13649 25.2326 -3.48773 -171.656 -3.52028 -1.93134 4.54188e-006 -4.6773e-006 -1.12358 -1.40407 -8.16726 0.472728 1.26356e-006 7.58204e-007 -0.0854884 18.914 69.6787 -20.9751 -8.13656 25.2336 3.48643 
55.5883 85.8246 6.50248 -2.84379 -5.04046 -0.799766 0.0258218 -1.01137 -0.105744 0.0445722 1.98003 -0.210905 0.0471654 3.6251 -0.211811 4.86996 6.41159 -0.914578 -3.15203 4.81144 0.23714 62.4567 -4.7702 -3.17871 108.887 18.0605 4.69296 5.04413e-007 1.06294e-007 -4.97288e-006 12.9953 4.15442 -0.9396 7.61644e-007 8.30136e-006 -3 8.02887 -4.95145 0.697702 -52.6215 -1.05362 -0.0974762 -113.922 15.0386 0.00718973 1.5918e-006 2.45892e-006 4.98386e-006 -9.64292 3.77287 0.881241 5.40276e-006 -6.45906e-006 3 -8.02898 -4.95146 -0.697696 177.333 -3.10117 -0.345423 180 7.01521e-015 178.815 177.979 5.365 179.689 2.55378e-006 -1.84189e-007 0.0494074 -18.6033 67.7226 19.3082 8.13649 25.2326 -3.48773 -171.654 -3.51241 -1.93268 4.54188e-006 -4.6773e-006 -1.12347 -1.40491 -8.17614 0.472476 1.26356e-006 7.58204e-007 -0.0854884 18.9141 69.6826 -20.9792 -8.13656 25.2336 3.48643 
